<?xml version="1.0" standalone="no"?>
<!DOCTYPE svg PUBLIC "-//W3C//DTD SVG 20010904//EN"
 "http://www.w3.org/TR/2001/REC-SVG-20010904/DTD/svg10.dtd">
<svg version="1.0" xmlns="http://www.w3.org/2000/svg"
 width="980.000000pt" height="980.000000pt" viewBox="0 0 980.000000 980.000000"
 preserveAspectRatio="xMidYMid meet">

<g transform="translate(0.000000,980.000000) scale(0.100000,-0.100000)"
fill="#000000" stroke="none">
<path d="M4370 6509 c-250 -252 -606 -609 -789 -793 l-335 -335 108 -107 109
-106 686 686 c377 377 688 686 691 686 3 0 194 -189 425 -420 l420 -420 215 0
215 0 -635 635 c-349 349 -639 634 -645 634 -5 -1 -215 -208 -465 -460z"/>
<path d="M3183 6068 l-792 -793 227 -223 c125 -122 485 -480 799 -795 l573
-572 107 108 108 107 -682 683 c-375 375 -686 686 -690 690 -4 4 301 316 677
692 l684 684 -74 78 c-86 90 -131 133 -139 133 -3 0 -362 -357 -798 -792z"/>
<path d="M4840 6015 l-105 -105 105 -105 105 -105 220 0 220 1 -215 209 c-118
115 -217 209 -220 210 -3 0 -52 -47 -110 -105z"/>
<path d="M5645 5443 c-108 -14 -229 -78 -303 -159 -97 -105 -142 -225 -142
-378 0 -309 186 -515 487 -541 149 -13 283 22 392 101 l64 46 -56 56 -56 56
-43 -31 c-90 -64 -198 -90 -308 -72 -192 30 -305 155 -317 351 -15 221 108
384 314 417 112 18 252 -18 321 -82 l22 -21 55 54 55 55 -37 32 c-111 94 -281
138 -448 116z"/>
<path d="M3777 5423 c-2 -5 -4 -240 -3 -523 l1 -515 82 -3 83 -3 2 403 3 402
119 -170 c223 -316 230 -324 251 -324 13 1 35 23 65 66 25 36 56 80 70 99 14
18 72 99 130 180 l105 146 3 -400 2 -401 85 0 85 0 -2 523 -3 522 -90 3 c-106
3 -97 9 -191 -129 -33 -47 -104 -149 -158 -227 l-99 -142 -46 64 c-25 35 -95
135 -156 221 -164 236 -141 215 -245 215 -49 0 -91 -3 -93 -7z"/>
<path d="M6340 4905 l0 -525 80 0 80 0 0 400 c0 220 3 400 8 400 4 -1 22 -22
40 -48 18 -26 79 -112 135 -192 156 -223 177 -250 195 -250 10 0 43 38 77 87
165 236 288 403 297 403 5 0 8 -6 7 -12 -1 -7 -1 -187 0 -400 l1 -388 80 0 80
0 0 525 0 525 -97 0 -98 0 -67 -98 c-66 -95 -226 -323 -261 -372 -16 -23 -19
-23 -30 -8 -30 41 -98 137 -210 298 l-123 175 -97 3 -97 3 0 -526z"/>
<path d="M2610 4505 l-105 -105 180 -178 c154 -152 371 -364 1287 -1261 l128
-125 27 25 c28 25 350 340 823 805 146 143 307 300 358 349 50 49 92 92 92 96
0 4 -95 8 -211 9 l-212 1 -211 -208 c-116 -114 -311 -307 -434 -428 -123 -121
-224 -221 -226 -223 -2 -1 -39 32 -82 74 -85 82 -850 831 -1127 1104 -92 91
-171 166 -175 168 -4 1 -54 -45 -112 -103z"/>
<path d="M5223 3638 l-481 -483 103 -100 c57 -55 108 -101 112 -102 4 -2 271
260 592 581 l585 585 -215 0 -214 1 -482 -482z"/>
</g>
</svg>
